<?xml version="1.0" standalone="no"?>
<!DOCTYPE svg PUBLIC "-//W3C//DTD SVG 20010904//EN"
 "http://www.w3.org/TR/2001/REC-SVG-20010904/DTD/svg10.dtd">
<svg version="1.0" xmlns="http://www.w3.org/2000/svg"
 width="2048.000000pt" height="2048.000000pt" viewBox="0 0 2048.000000 2048.000000"
 preserveAspectRatio="xMidYMid meet">

<g transform="translate(0.000000,2048.000000) scale(0.100000,-0.100000)"
fill="#000000" stroke="none">
<path d="M9665 14650 c-211 -14 -408 -45 -675 -104 -165 -37 -488 -158 -720
-269 -762 -367 -1411 -1036 -1790 -1842 -26 -55 -98 -219 -160 -365 -217 -513
-288 -649 -458 -879 -66 -90 -252 -284 -337 -351 -276 -218 -598 -376 -940
-461 -349 -86 -625 -109 -1245 -104 -408 3 -436 0 -459 -43 -20 -37 -13 -87
15 -116 l27 -26 321 0 c752 0 1176 -83 1814 -356 451 -194 617 -255 822 -303
168 -40 230 -50 394 -61 251 -18 521 10 826 86 240 60 340 94 598 199 72 30
194 80 270 111 75 31 207 86 292 121 173 73 235 97 395 153 61 21 119 41 130
46 11 4 -9 -19 -44 -51 -208 -193 -357 -463 -406 -733 -52 -285 -15 -540 113
-785 157 -299 474 -519 829 -572 123 -19 332 -19 443 -1 409 66 809 358 1101
802 149 228 324 627 426 969 l17 60 7 -350 c8 -407 21 -535 80 -770 35 -135
111 -288 198 -394 95 -117 303 -247 457 -285 366 -93 717 8 1093 314 97 78
356 328 426 410 162 191 492 526 672 682 431 376 1085 660 1783 777 353 58
423 63 997 70 l531 6 26 24 c37 35 36 92 -2 131 l-28 28 -405 5 c-420 5 -562
15 -779 57 -518 101 -939 324 -1285 681 -177 183 -289 335 -445 604 -76 132
-242 472 -306 628 -80 195 -91 220 -127 302 -62 145 -192 397 -277 540 -122
207 -295 451 -329 465 -36 15 -76 4 -101 -27 -39 -49 -28 -79 83 -245 250
-369 450 -755 595 -1148 126 -341 182 -556 246 -935 32 -193 41 -271 65 -592
4 -62 13 -119 20 -127 24 -28 76 -39 114 -22 52 21 58 55 46 250 -9 157 -55
562 -65 578 -3 4 -3 8 0 8 2 0 26 -30 52 -67 76 -107 275 -333 376 -428 179
-167 424 -336 638 -439 58 -28 172 -73 254 -101 l148 -52 -138 -22 c-493 -80
-1032 -281 -1449 -541 -276 -171 -461 -338 -940 -844 -518 -549 -688 -683
-982 -773 -78 -24 -104 -27 -238 -27 -142 -1 -155 1 -250 31 -131 42 -211 91
-299 183 -99 104 -169 245 -206 415 -43 194 -42 183 -50 1385 -7 1237 -6 1203
-60 1453 -77 355 -258 635 -525 813 -184 122 -351 188 -580 230 -157 28 -490
26 -653 -4 -175 -33 -310 -75 -442 -138 -463 -222 -751 -615 -800 -1092 -17
-159 8 -214 97 -214 29 0 43 7 64 30 23 25 28 43 34 109 14 171 51 304 127
458 57 114 113 188 220 291 221 211 490 335 824 379 318 42 673 -19 907 -157
86 -51 199 -162 245 -240 143 -242 121 -572 -53 -812 -143 -198 -348 -337
-760 -514 -163 -70 -551 -212 -745 -272 -249 -78 -594 -190 -695 -226 -193
-70 -581 -223 -720 -284 -141 -63 -163 -72 -420 -173 -156 -61 -388 -136 -540
-173 -115 -28 -364 -62 -510 -71 -114 -6 -348 16 -495 47 -184 39 -514 155
-780 275 -102 45 -327 136 -440 177 -30 11 -116 37 -190 58 -74 21 -128 40
-120 43 8 3 63 17 121 31 229 55 498 154 658 242 488 269 805 601 1057 1109
72 144 80 162 219 500 108 262 165 387 209 462 20 34 36 64 36 68 0 9 117 201
183 300 255 382 628 757 992 999 293 195 524 311 830 416 1499 515 3130 -37
4063 -1374 119 -170 170 -251 250 -396 262 -479 433 -1022 483 -1540 17 -171
17 -579 0 -785 -12 -154 -12 -174 2 -202 29 -56 104 -67 146 -22 24 26 27 42
47 279 27 320 11 687 -47 1028 -72 434 -254 955 -457 1312 -36 63 -73 129 -82
145 -102 181 -302 462 -429 605 -434 486 -857 797 -1416 1038 -244 106 -451
170 -715 221 -276 54 -667 79 -945 61z m1577 -3195 c21 -111 23 -147 23 -480
0 -335 -2 -368 -23 -480 -123 -639 -289 -1132 -510 -1520 -142 -249 -353 -488
-564 -638 -186 -133 -422 -206 -664 -207 -421 0 -725 174 -896 514 -87 173
-118 411 -79 613 48 252 155 441 355 629 193 183 492 347 1046 576 205 84 279
118 495 225 221 111 287 152 411 256 208 174 311 345 369 611 3 15 8 27 10 24
2 -2 14 -58 27 -123z"/>
<path d="M13878 14533 c-40 -25 -53 -62 -35 -104 8 -19 62 -88 121 -153 345
-384 620 -842 863 -1436 54 -131 87 -207 201 -455 255 -558 589 -937 1042
-1183 163 -89 382 -158 591 -187 138 -19 168 -16 205 20 47 47 19 136 -48 149
-12 2 -81 14 -153 25 -381 63 -679 218 -964 503 -198 197 -296 339 -456 659
-62 123 -225 488 -225 503 0 10 -212 468 -276 596 -69 140 -96 186 -222 379
-63 97 -216 308 -273 376 -9 11 -53 63 -96 115 -139 166 -185 210 -218 210
-17 0 -42 -8 -57 -17z"/>
<path d="M9710 13733 c-322 -19 -714 -121 -1007 -262 -153 -75 -372 -202 -487
-284 -200 -142 -453 -389 -623 -607 -178 -229 -373 -582 -466 -845 -145 -409
-195 -706 -200 -1172 l-2 -222 29 -30 c39 -40 92 -43 128 -6 24 24 25 28 32
242 14 459 48 684 152 1004 71 219 213 518 332 697 265 400 525 658 917 907
165 105 511 254 710 307 257 67 426 87 720 83 181 -2 257 -7 355 -24 573 -99
1090 -369 1510 -791 473 -474 768 -1086 861 -1790 20 -150 17 -671 -5 -850
-42 -344 -138 -692 -279 -1013 -72 -162 -80 -188 -68 -220 16 -41 51 -67 90
-67 68 1 80 19 189 290 154 385 242 746 273 1118 15 188 7 655 -16 817 -41
297 -138 629 -267 910 -95 209 -149 305 -265 477 -172 255 -321 425 -538 611
-215 185 -352 279 -599 407 -466 244 -938 344 -1476 313z"/>
<path d="M5794 12988 c-42 -50 -151 -283 -274 -588 -134 -334 -237 -544 -327
-669 -93 -129 -244 -285 -348 -359 -270 -192 -692 -327 -1095 -351 -128 -7
-134 -8 -156 -35 -37 -42 -33 -97 8 -132 l33 -27 125 7 c143 7 247 22 443 65
518 113 905 363 1169 756 79 118 181 323 272 547 115 285 121 300 223 520 101
221 105 237 61 278 -15 13 -35 20 -64 20 -35 0 -47 -5 -70 -32z"/>
<path d="M16440 9639 c-943 -83 -1640 -487 -2163 -1255 -100 -147 -157 -243
-307 -519 -266 -488 -408 -717 -595 -955 -117 -149 -125 -161 -125 -187 0 -64
66 -116 121 -94 78 30 366 443 639 916 12 22 69 126 125 230 335 623 641 994
1041 1257 401 265 889 410 1424 424 102 3 200 7 218 10 49 8 72 36 72 88 0 37
-5 48 -31 70 -30 26 -33 26 -177 25 -81 -1 -190 -5 -242 -10z"/>
<path d="M3596 9467 c-42 -42 -30 -118 23 -146 10 -6 69 -15 132 -21 313 -29
569 -99 818 -223 192 -97 338 -202 497 -361 208 -209 309 -367 574 -898 117
-234 191 -371 208 -385 55 -46 140 -19 157 49 5 19 -41 117 -192 419 -264 522
-351 663 -542 875 -178 198 -366 340 -610 462 -290 145 -611 232 -917 248
-122 7 -122 7 -148 -19z"/>
<path d="M7153 8910 c-49 -29 -51 -58 -13 -159 77 -203 262 -526 414 -721 368
-473 813 -801 1372 -1010 419 -157 976 -205 1439 -125 235 41 469 113 684 209
184 82 416 214 448 255 22 28 16 89 -12 116 -41 42 -84 34 -200 -35 -375 -226
-804 -359 -1261 -391 -325 -24 -776 51 -1126 186 -621 240 -1181 763 -1494
1395 -39 80 -80 167 -90 194 -39 99 -93 128 -161 86z"/>
<path d="M6284 8716 c-18 -8 -36 -27 -44 -45 -11 -28 -10 -40 15 -108 186
-524 578 -1119 998 -1514 522 -492 1064 -805 1702 -983 200 -55 437 -96 694
-117 176 -15 537 -7 711 16 817 105 1590 491 2213 1105 145 144 167 169 167
196 0 67 -81 116 -134 81 -13 -9 -77 -67 -142 -130 -217 -207 -322 -295 -516
-430 -495 -344 -980 -540 -1553 -628 -176 -27 -611 -38 -804 -20 -592 56
-1147 257 -1666 604 -631 423 -1138 1040 -1449 1765 -36 84 -66 156 -66 160 0
15 -44 50 -70 56 -14 3 -39 0 -56 -8z"/>
</g>
</svg>
